<?xml version="1.0" encoding="UTF-8" standalone="no"?>
<svg
   width="563"
   height="163"
   viewBox="0 0 563 163"
   version="1.1"
   id="svg12"
   sodipodi:docname="multi vectorized.svg"
   inkscape:version="1.3 (0e150ed, 2023-07-21)"
   xmlns:inkscape="http://www.inkscape.org/namespaces/inkscape"
   xmlns:sodipodi="http://sodipodi.sourceforge.net/DTD/sodipodi-0.dtd"
   xmlns="http://www.w3.org/2000/svg"
   xmlns:svg="http://www.w3.org/2000/svg">
  <defs
     id="defs12" />
  <sodipodi:namedview
     id="namedview12"
     pagecolor="#ffffff"
     bordercolor="#000000"
     borderopacity="0.25"
     inkscape:showpageshadow="2"
     inkscape:pageopacity="0.0"
     inkscape:pagecheckerboard="0"
     inkscape:deskcolor="#d1d1d1"
     inkscape:zoom="1.2806394"
     inkscape:cx="281.89043"
     inkscape:cy="81.209431"
     inkscape:window-width="1312"
     inkscape:window-height="449"
     inkscape:window-x="0"
     inkscape:window-y="38"
     inkscape:window-maximized="0"
     inkscape:current-layer="svg12" />
  <path
     fill="#020406"
     d="M0 0L563 0L563 163L0 163L0 0Z"
     id="path1"
     style="fill:#0b0c10;fill-opacity:1" />
  <path
     fill="#FEFEFE"
     d="M96.5345 65.8969L116.733 43.6474C121.11 38.8068 125.747 33.0462 130.902 29.1879C136.244 25.19 145.667 25.9791 150.563 30.4387C153.803 33.3899 153.952 37.1245 154.143 41.2652C154.211 59.7123 154.18 78.2177 154.184 96.6688L154.185 116.292C154.186 128.991 156.08 138.82 139.552 139.075C139.05 139.082 138.547 139.084 138.044 139.082C121.584 139.238 124.127 139.064 115.161 125.213L101.216 103.615C99.1872 100.47 95.7748 94.8683 93.6599 92.0996L68.669 119.469C64.6452 123.909 60.6298 128.374 56.5981 132.795C52.8241 136.933 49.8902 139.97 43.897 139.942C39.5373 139.922 34.7283 140.258 30.4133 139.645C24.3376 138.432 20.4052 132.906 20.0851 126.909C20.0239 125.763 20.5609 123.033 20.8545 121.87C22.7433 114.386 25.0489 106.972 27.2901 99.5846L40.116 58.1726C41.626 53.3131 43.1027 48.4433 44.5462 43.5635C46.4362 37.21 47.4048 28.8103 54.9435 27.2278C75.1372 22.9889 81.8664 44.0209 91.3093 56.9288C92.6465 58.7566 96.0477 63.9275 96.5345 65.8969Z"
     id="path2" />
  <path
     fill="#2587FD"
     d="M30.4133 139.645C24.3376 138.432 20.4052 132.906 20.0851 126.909C20.0239 125.763 20.5609 123.033 20.8545 121.87C22.7433 114.386 25.0489 106.972 27.2901 99.5846L40.116 58.1726C41.626 53.3131 43.1027 48.4433 44.5462 43.5635C46.4362 37.21 47.4048 28.8103 54.9435 27.2278C75.1372 22.9889 81.8664 44.0209 91.3093 56.9288C92.6465 58.7566 96.0477 63.9275 96.5345 65.8969C94.5967 68.1748 87.4984 76.2498 85.3386 78.0351L55.0207 111.364C51.318 115.441 44.112 122.815 40.787 126.967C38.1736 130.74 33.5504 135.339 30.4133 139.645Z"
     id="path3" />
  <path
     fill="#020406"
     d="M62.2372 42.3475C69.8747 53.3482 77.952 66.6683 85.3386 78.0351L55.0207 111.364C51.318 115.441 44.112 122.815 40.787 126.967C40.582 125.706 38.8115 123.175 38.0811 121.503C38.6486 117.989 40.3187 112.804 41.3797 109.262L48.2673 86.9036L56.1067 60.93C57.9496 54.7957 59.7226 48.2019 62.2372 42.3475Z"
     id="path4"
     style="fill:#0b0c10;fill-opacity:1" />
  <path
     fill="#020406"
     d="M104.983 79.6896C112.181 71.9829 119.305 64.208 126.355 56.3661C128.857 53.6095 135.391 46.1189 137.928 44.1276C138.227 54.9222 138.04 66.2737 138.042 77.1234L138.032 131.502C138.235 133.696 138.28 136.892 138.044 139.082C121.584 139.238 124.127 139.064 115.161 125.213L101.216 103.615C99.1872 100.47 95.7748 94.8683 93.6599 92.0996C96.3765 88.627 101.815 83.0904 104.983 79.6896Z"
     id="path5"
     style="fill:#0b0c10;fill-opacity:1" />
  <path
     fill="#2587FD"
     d="M104.983 79.6896C107.197 82.1692 112.61 91.1534 114.682 94.3964L133.483 123.725C134.415 125.189 137.556 130.877 138.032 131.502C138.235 133.696 138.28 136.892 138.044 139.082C121.584 139.238 124.127 139.064 115.161 125.213L101.216 103.615C99.1872 100.47 95.7748 94.8683 93.6599 92.0996C96.3765 88.627 101.815 83.0904 104.983 79.6896Z"
     id="path6" />
  <path
     fill="#FEFEFE"
     d="M235.858 57.0191C245.493 56.65 254.867 59.4781 258.442 69.4728C268.977 51.0041 301.51 52.8703 305.888 75.1056C307.298 82.2652 306.807 90.5645 306.812 97.9275L306.832 130.984C301.455 131.031 296.077 131.032 290.7 130.987L290.803 101.245C290.806 90.0044 293.468 71.8746 277.533 71.9557C260.55 72.042 261.828 85.3772 261.839 97.7667L261.872 116.874L261.962 130.913C256.747 131.085 251.271 131.014 246.034 131.018C245.862 120.118 246.238 109.054 246.034 98.2286C245.815 86.5743 248.954 72.034 232.659 71.9411C214.023 71.8348 216.868 89.1091 216.887 101.997L216.902 130.976L200.964 131.028L200.934 58.5522C205.994 58.5152 211.054 58.5142 216.114 58.5495L216.028 68.1598C216.706 67.159 217.441 66.1978 218.228 65.2808C223.093 59.5446 228.69 57.6171 235.858 57.0191Z"
     id="path7" />
  <path
     fill="#FEFEFE"
     d="M370.384 58.505L386.24 58.5318C386.074 66.5074 386.187 74.8696 386.184 82.8744L386.212 131L371.032 131.017L370.928 120.493C362.731 133.815 341.679 135.734 330.517 125.234C321.588 116.836 323.303 100.511 323.309 89.0874L323.292 58.5233L339.861 58.5415C339.535 72.4609 339.914 86.4281 339.745 100.361C339.628 109.975 342.776 118.073 354.105 117.758C372.942 117.234 370.486 99.0517 370.492 85.7702C370.553 76.6817 370.517 67.5927 370.384 58.505Z"
     id="path8" />
  <path
     fill="#FEFEFE"
     d="M452.989 39.0287L468.931 39.0335C468.498 44.432 468.734 52.978 468.72 58.5866C476.259 58.4637 484.022 58.5412 491.578 58.5332C491.51 63.1185 491.523 67.7046 491.617 72.2894L468.761 72.2295L468.735 96.5913C468.734 100.9 468.422 107.46 469.403 111.53C471.43 119.946 483.8 117.286 490.107 115.977C490.033 118.816 490.083 121.87 490.076 124.726L490.152 129.521C480.321 132.069 466.03 133.635 458.055 125.789C455.881 123.657 454.371 120.94 453.709 117.968C452.659 113.456 453.014 104.217 453.017 99.2554L453 72.2886L435.945 72.2779C435.98 67.6966 435.935 63.1151 435.81 58.5354L453.028 58.5405L452.989 39.0287Z"
     id="path9" />
  <path
     fill="#FEFEFE"
     d="M402.219 32.9871L418.745 33.0121L418.7 84.8599L418.697 101.191C418.694 104.487 418.581 108.093 418.907 111.358C419.083 113.115 419.166 114.144 420.575 115.202C423.475 117.381 428.77 116.674 432.204 116.235C432.081 121.037 432.138 126.039 432.13 130.857C424.443 131.27 413.63 132.181 407.796 126.371C405.111 123.678 403.308 120.233 402.624 116.493C402.02 113.196 402.186 108.48 402.201 105.044L402.261 89.5929L402.219 32.9871Z"
     id="path10" />
  <path
     fill="#FEFEFE"
     d="M504.129 58.5297L532.433 58.5547C532.152 62.0839 532.289 67.3934 532.287 71.031L532.308 93.1521L532.291 116.466C532.282 121.097 532.146 126.397 532.419 130.947C527.172 131.053 521.75 131.003 516.489 131.022L516.534 72.5433L504.118 72.5761C504.172 67.8941 504.176 63.2117 504.129 58.5297Z"
     id="path11" />
  <path
     fill="#FEFEFE"
     d="M519.807 29.7979C522.737 29.5281 525.632 29.517 528.262 30.994C530.461 32.2301 532.069 34.2994 532.723 36.7349C533.421 39.2405 533.095 41.9203 531.817 44.1857C530.312 46.7977 528.162 48.0971 525.34 48.8461C522.552 49.19 519.786 49.0981 517.254 47.7689C514.957 46.5575 513.242 44.4771 512.491 41.9922C511.737 39.5632 511.993 36.9327 513.202 34.6948C514.696 31.9641 516.924 30.6368 519.807 29.7979Z"
     id="path12" />
</svg>
